<svg xmlns="http://www.w3.org/2000/svg" viewBox="0 0 570.69 73.89"><defs><style>.cls-1{fill:#1a5ffa;fill-rule:evenodd;}.cls-2{fill:#333;}</style></defs><g id="Слой_2" data-name="Слой 2"><g id="Слой_1-2" data-name="Слой 1"><path class="cls-1" d="M54.48,15.65,2.82,9A2.42,2.42,0,0,1,.61,5.84,9.12,9.12,0,0,1,9.12,0H63.88A9.13,9.13,0,0,1,73,9.12V63.88A9.13,9.13,0,0,1,63.88,73a1,1,0,0,1-1-.92L58.44,19.79A4.56,4.56,0,0,0,54.48,15.65Zm-7.25,8.26a3,3,0,0,1,2.64,2.76l3.65,43a3,3,0,0,1-3,3.3H45.69a3,3,0,0,1-3-2.78L40.19,41.08a4.56,4.56,0,0,0-4-4.14L2.65,32.59a3,3,0,0,1-2.65-3V21.25a3,3,0,0,1,3.43-3ZM0,44.91a3,3,0,0,1,3.43-3L29,45.2A3,3,0,0,1,31.62,48L33.46,69.7a3,3,0,0,1-3,3.3H9.12A9.13,9.13,0,0,1,0,63.88Z"/><path class="cls-2" d="M151.08,55.63a9.7,9.7,0,0,1-3.38,1.75A15.51,15.51,0,0,1,143,58a16.69,16.69,0,0,1-5.85-.88A4.9,4.9,0,0,1,134,54.1q-3.5-10.16-5.95-16.88c-1.64-4.48-2.94-8.37-3.88-11.64h-.44q-.33,6.78-.55,12.4t-.38,11c-.11,3.57-.24,7.17-.38,10.82s-.33,7.65-.55,12a22.39,22.39,0,0,1-3.22.82,23.05,23.05,0,0,1-4.21.38,12.79,12.79,0,0,1-6.67-1.47c-1.6-1-2.4-2.68-2.4-5.09,0-1.38,0-3.29.16-5.73s.26-5.25.44-8.42.4-6.57.65-10.22.51-7.34.77-11.09.49-7.47.71-11.15.44-7.09.66-10.22a11,11,0,0,1,3.55-2.68,15.7,15.7,0,0,1,7.48-1.47,16.76,16.76,0,0,1,8.09,1.63,10.36,10.36,0,0,1,4.48,5.36c.81,2,1.64,4.17,2.52,6.61s1.75,4.94,2.62,7.49,1.73,5.08,2.57,7.6,1.62,4.82,2.35,6.94H143q3.06-9.62,6.12-18.64t5.35-15.14A18,18,0,0,1,158.35,6a23.24,23.24,0,0,1,5.19-.54,18.25,18.25,0,0,1,7.87,1.42,5.79,5.79,0,0,1,3.5,4.15q.43,2.19,1,6.67T177,28q.54,5.79,1.09,12.19c.37,4.26.69,8.38,1,12.35s.54,7.6.76,10.87.36,5.83.44,7.66a13.82,13.82,0,0,1-3.5,1.47,18.71,18.71,0,0,1-4.7.49,13.42,13.42,0,0,1-6.18-1.31q-2.56-1.31-2.78-5.14-.77-12.68-1-23.22T161.47,26h-.55q-1.3,4.59-3.77,11.59T151.08,55.63Z"/><path class="cls-2" d="M213.28,17.92a43.29,43.29,0,0,1,10.32,1.15,22.45,22.45,0,0,1,7.93,3.55,16.38,16.38,0,0,1,5.08,6.13,19.82,19.82,0,0,1,1.8,8.74v24.7a6.68,6.68,0,0,1-1.47,4.54,13.83,13.83,0,0,1-3.55,2.89,26.74,26.74,0,0,1-8.31,3.17,51.55,51.55,0,0,1-11.15,1.1q-11.25,0-17.92-4.32T189.34,56.4q0-7.55,4.48-11.48T207.59,40l14.54-1.53v-1.2a5.53,5.53,0,0,0-2.84-5.14q-2.85-1.64-8.2-1.64a33.66,33.66,0,0,0-8.14,1,49.92,49.92,0,0,0-7.16,2.29,6.86,6.86,0,0,1-2.24-2.67,8.38,8.38,0,0,1-.93-3.88c0-3.21,1.67-5.51,5-6.89a34.73,34.73,0,0,1,7.37-1.8A58.57,58.57,0,0,1,213.28,17.92Zm.65,43.62a23.11,23.11,0,0,0,4.76-.5,10.84,10.84,0,0,0,3.55-1.25V49.73l-9,.77a13.38,13.38,0,0,0-5.63,1.58,4.11,4.11,0,0,0-2.13,3.77,5,5,0,0,0,2,4.16Q209.45,61.54,213.93,61.54Z"/><path class="cls-2" d="M267.27,72a21.12,21.12,0,0,1-3.06.6,32.31,32.31,0,0,1-4.37.27q-4.92,0-7.11-1.58c-1.46-1.06-2.18-3.12-2.18-6.18V31.81a8.86,8.86,0,0,1,1.53-5.25,13.75,13.75,0,0,1,4.26-3.83A31.33,31.33,0,0,1,265,19.29,44.13,44.13,0,0,1,275.68,18q11.37,0,11.37,7.66a10.07,10.07,0,0,1-.54,3.38,14.76,14.76,0,0,1-1.21,2.63,28.82,28.82,0,0,0-6.12-.55,27,27,0,0,0-6.34.77A22.9,22.9,0,0,0,267.27,34Z"/><path class="cls-2" d="M326,45.14,344.87,63.5a12.38,12.38,0,0,1-2.78,7,8.23,8.23,0,0,1-6.4,2.46,10.14,10.14,0,0,1-5.57-1.53,24.93,24.93,0,0,1-5.36-5L311.75,51V72a20.84,20.84,0,0,1-3.06.6,32.31,32.31,0,0,1-4.37.27q-4.92,0-7.1-1.58T295,65.14V1c.8-.22,1.86-.43,3.17-.65A26.53,26.53,0,0,1,302.57,0q4.92,0,7.05,1.64t2.13,6.23V38.8l19.79-20.11a13.38,13.38,0,0,1,8.2,2.3,6.9,6.9,0,0,1,3.06,5.68,7.5,7.5,0,0,1-2,5.19,77.59,77.59,0,0,1-6.28,6Z"/><path class="cls-2" d="M366.08,52.79a10.66,10.66,0,0,0,5.35,6.51,19.62,19.62,0,0,0,8.86,1.91A28.86,28.86,0,0,0,388.92,60a29.37,29.37,0,0,0,6.56-2.79A9.3,9.3,0,0,1,398.21,60a7,7,0,0,1,1.09,3.82,6.64,6.64,0,0,1-1.53,4.37,11.9,11.9,0,0,1-4.2,3.12,24.47,24.47,0,0,1-6.34,1.86,49.94,49.94,0,0,1-8,.6A37.55,37.55,0,0,1,367.28,72a25.82,25.82,0,0,1-9.4-5.35,24.72,24.72,0,0,1-6.18-8.91,32.48,32.48,0,0,1-2.24-12.57A30.22,30.22,0,0,1,351.7,33a24.36,24.36,0,0,1,6-8.53,24,24,0,0,1,8.63-5,32,32,0,0,1,10-1.59,29.61,29.61,0,0,1,10.22,1.7,23.55,23.55,0,0,1,8,4.75,21.44,21.44,0,0,1,5.19,7.33A23,23,0,0,1,401.6,41a6.85,6.85,0,0,1-1.86,5.24,9.67,9.67,0,0,1-5.24,2.3Zm10.38-22.51a11,11,0,0,0-7.81,2.89q-3.12,2.89-3.67,8.36l20.88-3.38a8.93,8.93,0,0,0-2.51-5.36C381.82,31.11,379.52,30.28,376.46,30.28Z"/><path class="cls-2" d="M432.42,17.92a43.37,43.37,0,0,1,10.33,1.15,22.45,22.45,0,0,1,7.93,3.55,16.38,16.38,0,0,1,5.08,6.13,19.82,19.82,0,0,1,1.8,8.74v24.7a6.68,6.68,0,0,1-1.47,4.54,13.88,13.88,0,0,1-3.56,2.89,26.67,26.67,0,0,1-8.3,3.17,51.55,51.55,0,0,1-11.15,1.1q-11.26,0-17.93-4.32T408.49,56.4q0-7.55,4.48-11.48T426.74,40l14.54-1.53v-1.2a5.52,5.52,0,0,0-2.85-5.14c-1.89-1.09-4.63-1.64-8.19-1.64a33.74,33.74,0,0,0-8.15,1,50.33,50.33,0,0,0-7.16,2.29,6.94,6.94,0,0,1-2.24-2.67,8.38,8.38,0,0,1-.93-3.88q0-4.81,5-6.89a34.68,34.68,0,0,1,7.38-1.8A58.44,58.44,0,0,1,432.42,17.92Zm.66,43.62a22.94,22.94,0,0,0,4.75-.5,10.75,10.75,0,0,0,3.55-1.25V49.73l-9,.77a13.42,13.42,0,0,0-5.63,1.58,4.11,4.11,0,0,0-2.13,3.77,5,5,0,0,0,2,4.16Q428.6,61.54,433.08,61.54Z"/><path class="cls-2" d="M468.43,68.86a9.13,9.13,0,0,1-.92-4.15,9,9,0,0,1,.92-4,19.31,19.31,0,0,1,2.35-3.67l20.55-24.48H469.69a26.07,26.07,0,0,1-1.15-2.79,10.89,10.89,0,0,1-.6-3.66c0-2.33.53-4,1.59-5a5.68,5.68,0,0,1,4.1-1.53h34.54a12.55,12.55,0,0,1,2.51,3.28,8.94,8.94,0,0,1,1,4.27,8.81,8.81,0,0,1-.93,3.88,19.07,19.07,0,0,1-2.35,3.66L488.16,59.24h23a11.49,11.49,0,0,1,1.2,2.73,12.2,12.2,0,0,1,.55,3.61q0,3.49-1.59,5a5.66,5.66,0,0,1-4.1,1.53H470.89A11.44,11.44,0,0,1,468.43,68.86Z"/><path class="cls-2" d="M535.16,52.79a10.67,10.67,0,0,0,5.36,6.51,19.61,19.61,0,0,0,8.85,1.91A28.93,28.93,0,0,0,558,60a29.27,29.27,0,0,0,6.55-2.79A9.22,9.22,0,0,1,567.3,60a7,7,0,0,1,1.09,3.82,6.64,6.64,0,0,1-1.53,4.37,11.85,11.85,0,0,1-4.21,3.12,24.35,24.35,0,0,1-6.34,1.86,49.81,49.81,0,0,1-8,.6A37.66,37.66,0,0,1,536.36,72a26,26,0,0,1-9.4-5.35,24.57,24.57,0,0,1-6.17-8.91,32.48,32.48,0,0,1-2.24-12.57A30.22,30.22,0,0,1,520.79,33a24.34,24.34,0,0,1,6-8.53,24,24,0,0,1,8.64-5,31.94,31.94,0,0,1,10-1.59,29.65,29.65,0,0,1,10.22,1.7,23.75,23.75,0,0,1,8,4.75,21.44,21.44,0,0,1,5.19,7.33A23,23,0,0,1,570.69,41a6.85,6.85,0,0,1-1.86,5.24,9.67,9.67,0,0,1-5.25,2.3Zm10.39-22.51a11,11,0,0,0-7.82,2.89q-3.12,2.89-3.66,8.36L555,38.15a8.94,8.94,0,0,0-2.52-5.36C550.9,31.11,548.61,30.28,545.55,30.28Z"/></g></g></svg>